# xmcd
#
# Track frame offsets: 
#        150
#        24900
#        49103
#        71042
#        96885
#        113493
#        137024
#        155360
#
# Disc length: 2286 seconds
#
# Revision: 0
# Processed by: cddbd v1.5.2PL0 Copyright (c) Steve Scherf et al.
# Submitted via: ExactAudioCopyFreeDBPlugin 1.0
#
DISCID=5f08ec08
DTITLE=Zumba Fitness - Zumba Essential Tracks
DYEAR=2010
DGENRE=Dance
TTITLE0=Tigre
TTITLE1=Quien Baila Quien Goza
TTITLE2=Un Solo Pueblo
TTITLE3=Que Quiere La Nina
TTITLE4=Fuego
TTITLE5=Sigue la Cumbia
TTITLE6=Hala
TTITLE7=Zumba Mami
EXTD=
EXTT0=
EXTT1=
EXTT2=
EXTT3=
EXTT4=
EXTT5=
EXTT6=
EXTT7=
PLAYORDER=
